{
	"nodes":[{
		"name":"圆锥体.1",
		"translation":[275.7860412597656,
		-26.607505798339845,
		149.886962890625],
		"rotation":[0.0,
		0.0,
		1.0,
		0.00011058591917390004],
		"scale":[1.0,
		1.0,
		1.0],
		"mesh":0
	},
	{
		"name":"圆锥体",
		"translation":[285.84307861328127,
		0.4517454504966736,
		129.87635803222657],
		"rotation":[0.3755093216896057,
		-0.37405452132225039,
		0.5984499454498291,
		-0.6007775068283081],
		"scale":[1.0,
		1.0,
		1.0],
		"mesh":1
	},
	{
		"name":"圆柱体.1",
		"translation":[304.44622802734377,
		-0.4421944320201874,
		93.51627349853516],
		"rotation":[0.6916283965110779,
		-0.1575850248336792,
		0.1479366421699524,
		0.6891530156135559],
		"scale":[1.0,
		1.0,
		1.0],
		"mesh":2
	},
	{
		"name":"圆柱体",
		"translation":[314.4071350097656,
		-0.1354977935552597,
		-344.3651428222656],
		"rotation":[0.7071824669837952,
		-0.05546015501022339,
		0.0462736040353775,
		0.7033320069313049],
		"scale":[1.0,
		1.0,
		1.0],
		"mesh":3
	},
	{
		"name":"扫描",
		"mesh":4
	}],
	"asset":{
		"version":"2.0",
		"generator":"Created using the official Cinema 4D glTF Exporter 1.000x284978"
	},
	"scenes":[{
		"nodes":[0,
		1,
		2,
		3,
		4]
	}],
	"meshes":[{
		"name":"圆锥体.1",
		"primitives":[{
			"attributes":{
				"POSITION":1,
				"NORMAL":2,
				"TEXCOORD_0":3
			},
			"indices":0
		}]
	},
	{
		"name":"圆锥体",
		"primitives":[{
			"attributes":{
				"POSITION":5,
				"NORMAL":6,
				"TEXCOORD_0":7
			},
			"indices":4
		}]
	},
	{
		"name":"圆柱体.1",
		"primitives":[{
			"attributes":{
				"POSITION":9,
				"NORMAL":10,
				"TEXCOORD_0":11
			},
			"indices":8
		}]
	},
	{
		"name":"圆柱体",
		"primitives":[{
			"attributes":{
				"POSITION":13,
				"NORMAL":14,
				"TEXCOORD_0":15
			},
			"indices":12
		}]
	},
	{
		"name":"扫描",
		"primitives":[{
			"attributes":{
				"POSITION":17,
				"NORMAL":18,
				"TEXCOORD_0":19
			},
			"indices":16
		}]
	}],
	"accessors":[{
		"bufferView":0,
		"type":"SCALAR",
		"componentType":5123,
		"count":768,
		"byteOffset":0,
		"min":[0],
		"max":[168]
	},
	{
		"bufferView":1,
		"type":"VEC3",
		"componentType":5126,
		"count":169,
		"byteOffset":0,
		"min":[-8.017854690551758,
		-20.5,
		-8.017854690551758],
		"max":[8.017854690551758,
		20.5,
		8.017854690551758]
	},
	{
		"bufferView":1,
		"type":"VEC3",
		"componentType":5126,
		"count":169,
		"byteOffset":12,
		"min":[-0.9859399199485779,
		-1.0,
		-0.9859399199485779],
		"max":[0.9859399199485779,
		1.0,
		0.9859399199485779]
	},
	{
		"bufferView":1,
		"type":"VEC2",
		"componentType":5126,
		"count":169,
		"byteOffset":24,
		"min":[0.0,
		0.0],
		"max":[1.0,
		1.0]
	},
	{
		"bufferView":2,
		"type":"SCALAR",
		"componentType":5123,
		"count":3528,
		"byteOffset":0,
		"min":[0],
		"max":[664]
	},
	{
		"bufferView":3,
		"type":"VEC3",
		"componentType":5126,
		"count":665,
		"byteOffset":0,
		"min":[-24.227346420288087,
		-43.537452697753909,
		-24.227346420288087],
		"max":[24.227346420288087,
		43.537452697753909,
		24.227346420288087]
	},
	{
		"bufferView":3,
		"type":"VEC3",
		"componentType":5126,
		"count":665,
		"byteOffset":12,
		"min":[-0.9986052513122559,
		-1.0,
		-0.9986052513122559],
		"max":[0.9986052513122559,
		1.0,
		0.9986052513122559]
	},
	{
		"bufferView":3,
		"type":"VEC2",
		"componentType":5126,
		"count":665,
		"byteOffset":24,
		"min":[0.0,
		0.0],
		"max":[1.0,
		1.0]
	},
	{
		"bufferView":4,
		"type":"SCALAR",
		"componentType":5123,
		"count":5022,
		"byteOffset":0,
		"min":[0],
		"max":[921]
	},
	{
		"bufferView":5,
		"type":"VEC3",
		"componentType":5126,
		"count":922,
		"byteOffset":0,
		"min":[-9.75759220123291,
		-13.960447311401368,
		-9.807397842407227],
		"max":[9.824018478393555,
		13.960447311401368,
		9.807397842407227]
	},
	{
		"bufferView":5,
		"type":"VEC3",
		"componentType":5126,
		"count":922,
		"byteOffset":12,
		"min":[-0.9932383298873901,
		-1.0,
		-0.9983081817626953],
		"max":[1.0,
		1.0,
		0.9983081817626953]
	},
	{
		"bufferView":5,
		"type":"VEC2",
		"componentType":5126,
		"count":922,
		"byteOffset":24,
		"min":[0.0,
		0.0],
		"max":[1.0,
		1.0]
	},
	{
		"bufferView":6,
		"type":"SCALAR",
		"componentType":5123,
		"count":5022,
		"byteOffset":0,
		"min":[0],
		"max":[921]
	},
	{
		"bufferView":7,
		"type":"VEC3",
		"componentType":5126,
		"count":922,
		"byteOffset":0,
		"min":[-18.87152862548828,
		-27.0,
		-18.96785545349121],
		"max":[19.0,
		27.0,
		18.96785545349121]
	},
	{
		"bufferView":7,
		"type":"VEC3",
		"componentType":5126,
		"count":922,
		"byteOffset":12,
		"min":[-0.9932383298873901,
		-1.0,
		-0.9983081817626953],
		"max":[1.0,
		1.0,
		0.9983081817626953]
	},
	{
		"bufferView":7,
		"type":"VEC2",
		"componentType":5126,
		"count":922,
		"byteOffset":24,
		"min":[0.0,
		0.0],
		"max":[1.0,
		1.0]
	},
	{
		"bufferView":8,
		"type":"SCALAR",
		"componentType":5123,
		"count":38436,
		"byteOffset":0,
		"min":[0],
		"max":[6759]
	},
	{
		"bufferView":9,
		"type":"VEC3",
		"componentType":5126,
		"count":6760,
		"byteOffset":0,
		"min":[290.1589050292969,
		-5.0,
		-321.4254150390625],
		"max":[335.8838195800781,
		5.0,
		84.42335510253906]
	},
	{
		"bufferView":9,
		"type":"VEC3",
		"componentType":5126,
		"count":6760,
		"byteOffset":12,
		"min":[-0.9999977946281433,
		-1.0,
		-0.9893820285797119],
		"max":[0.9999977946281433,
		1.0,
		0.9114248156547546]
	},
	{
		"bufferView":9,
		"type":"VEC2",
		"componentType":5126,
		"count":6760,
		"byteOffset":24,
		"min":[0.0,
		0.0],
		"max":[1.0,
		1.0]
	}],
	"bufferViews":[{
		"buffer":0,
		"byteOffset":0,
		"byteLength":1536,
		"target":34963
	},
	{
		"buffer":0,
		"byteOffset":1536,
		"byteLength":5408,
		"target":34962,
		"byteStride":32
	},
	{
		"buffer":1,
		"byteOffset":0,
		"byteLength":7056,
		"target":34963
	},
	{
		"buffer":1,
		"byteOffset":7056,
		"byteLength":21280,
		"target":34962,
		"byteStride":32
	},
	{
		"buffer":2,
		"byteOffset":0,
		"byteLength":10044,
		"target":34963
	},
	{
		"buffer":2,
		"byteOffset":10044,
		"byteLength":29504,
		"target":34962,
		"byteStride":32
	},
	{
		"buffer":3,
		"byteOffset":0,
		"byteLength":10044,
		"target":34963
	},
	{
		"buffer":3,
		"byteOffset":10044,
		"byteLength":29504,
		"target":34962,
		"byteStride":32
	},
	{
		"buffer":4,
		"byteOffset":0,
		"byteLength":76872,
		"target":34963
	},
	{
		"buffer":4,
		"byteOffset":76872,
		"byteLength":216320,
		"target":34962,
		"byteStride":32
	}],
	"buffers":[{
		"uri":"data:application/octet-stream;base64,",
		"byteLength":6944
	},
	{
		"uri":"data:application/octet-stream;base64,",
		"byteLength":28336
	},
	{
		"uri":"data:application/octet-stream;base64,",
		"byteLength":39548
	},
	{
		"uri":"data:application/octet-stream;base64,",
		"byteLength":39548
	},
	{
		"uri":"data:application/octet-stream;base64,",
		"byteLength":293192
	}]
}