{
	"asset":{
		"version":"2.0",
		"generator":"Created using the official Cinema 4D glTF Exporter 1.000x284978"
	},
	"scenes":[{
		"nodes":[0,
		1,
		2]
	}],
	"nodes":[{
		"name":"挤压",
		"translation":[247.5180206298828,
		0.0,
		-152.1204833984375],
		"rotation":[0.0,
		0.0,
		0.0,
		-1.0],
		"scale":[1.0,
		1.0,
		1.0],
		"mesh":0
	},
	{
		"name":"挤压.1",
		"translation":[84.13029479980469,
		0.0,
		-152.1204833984375],
		"rotation":[0.0,
		0.0,
		0.0,
		-1.0],
		"scale":[1.0,
		1.0,
		1.0],
		"mesh":1
	},
	{
		"name":"挤压.2",
		"translation":[-119.93486022949219,
		0.0,
		113.23261260986328],
		"rotation":[0.0,
		0.0,
		0.0,
		-1.0],
		"scale":[1.0,
		1.0,
		1.0],
		"mesh":2
	}],
	"meshes":[{
		"name":"挤压",
		"primitives":[{
			"attributes":{
				"POSITION":1,
				"NORMAL":2,
				"TEXCOORD_0":3
			},
			"indices":0
		}]
	},
	{
		"name":"挤压.1",
		"primitives":[{
			"attributes":{
				"POSITION":5,
				"NORMAL":6,
				"TEXCOORD_0":7
			},
			"indices":4
		}]
	},
	{
		"name":"挤压.2",
		"primitives":[{
			"attributes":{
				"POSITION":9,
				"NORMAL":10,
				"TEXCOORD_0":11
			},
			"indices":8
		}]
	}],
	"accessors":[{
		"bufferView":0,
		"type":"SCALAR",
		"componentType":5123,
		"count":5028,
		"byteOffset":0,
		"min":[0],
		"max":[1131]
	},
	{
		"bufferView":1,
		"type":"VEC3",
		"componentType":5126,
		"count":1132,
		"byteOffset":0,
		"min":[-40.0,
		-117.08000183105469,
		-130.5],
		"max":[40.0,
		17.079999923706056,
		130.5]
	},
	{
		"bufferView":1,
		"type":"VEC3",
		"componentType":5126,
		"count":1132,
		"byteOffset":12,
		"min":[-1.0,
		-1.0,
		-0.998836100101471],
		"max":[1.0,
		1.0,
		0.998836100101471]
	},
	{
		"bufferView":1,
		"type":"VEC2",
		"componentType":5126,
		"count":1132,
		"byteOffset":24,
		"min":[0.0,
		0.0],
		"max":[1.0,
		1.0]
	},
	{
		"bufferView":2,
		"type":"SCALAR",
		"componentType":5123,
		"count":5028,
		"byteOffset":0,
		"min":[0],
		"max":[1131]
	},
	{
		"bufferView":3,
		"type":"VEC3",
		"componentType":5126,
		"count":1132,
		"byteOffset":0,
		"min":[-40.0,
		-117.08000183105469,
		-130.5],
		"max":[40.0,
		17.079999923706056,
		130.5]
	},
	{
		"bufferView":3,
		"type":"VEC3",
		"componentType":5126,
		"count":1132,
		"byteOffset":12,
		"min":[-1.0,
		-1.0,
		-0.998836100101471],
		"max":[1.0,
		1.0,
		0.998836100101471]
	},
	{
		"bufferView":3,
		"type":"VEC2",
		"componentType":5126,
		"count":1132,
		"byteOffset":24,
		"min":[0.0,
		0.0],
		"max":[1.0,
		1.0]
	},
	{
		"bufferView":4,
		"type":"SCALAR",
		"componentType":5123,
		"count":2580,
		"byteOffset":0,
		"min":[0],
		"max":[577]
	},
	{
		"bufferView":5,
		"type":"VEC3",
		"componentType":5126,
		"count":578,
		"byteOffset":0,
		"min":[-168.6526336669922,
		-117.08000183105469,
		-168.6526336669922],
		"max":[168.6526336669922,
		17.079999923706056,
		168.6526336669922]
	},
	{
		"bufferView":5,
		"type":"VEC3",
		"componentType":5126,
		"count":578,
		"byteOffset":12,
		"min":[-0.999588131904602,
		-1.0,
		-0.999588131904602],
		"max":[0.999588131904602,
		1.0,
		0.999588131904602]
	},
	{
		"bufferView":5,
		"type":"VEC2",
		"componentType":5126,
		"count":578,
		"byteOffset":24,
		"min":[0.0,
		0.0],
		"max":[1.0,
		1.0]
	}],
	"bufferViews":[{
		"buffer":0,
		"byteOffset":0,
		"byteLength":10056,
		"target":34963
	},
	{
		"buffer":0,
		"byteOffset":10056,
		"byteLength":36224,
		"target":34962,
		"byteStride":32
	},
	{
		"buffer":1,
		"byteOffset":0,
		"byteLength":10056,
		"target":34963
	},
	{
		"buffer":1,
		"byteOffset":10056,
		"byteLength":36224,
		"target":34962,
		"byteStride":32
	},
	{
		"buffer":2,
		"byteOffset":0,
		"byteLength":5160,
		"target":34963
	},
	{
		"buffer":2,
		"byteOffset":5160,
		"byteLength":18496,
		"target":34962,
		"byteStride":32
	}],
	"buffers":[{
		"uri":"data:application/octet-stream;base64,",
		"byteLength":46280
	},
	{
		"uri":"data:application/octet-stream;base64,",
		"byteLength":46280
	},
	{
		"uri":"data:application/octet-stream;base64,",
		"byteLength":23656
	}]
}